<?xml version="1.0" encoding="utf-8"?>
<!-- Generator: Adobe Illustrator 25.0.0, SVG Export Plug-In . SVG Version: 6.00 Build 0)  -->
<svg version="1.1" id="Layer_1" xmlns="http://www.w3.org/2000/svg" xmlns:xlink="http://www.w3.org/1999/xlink" x="0px" y="0px"
	 viewBox="0 0 390.2 235.6" style="enable-background:new 0 0 390.2 235.6;" xml:space="preserve">
<style type="text/css">
	.st0{fill:#191919;}
</style>
<path id="glasses" class="st0" d="M337.4,156.5c-7.1-33.6-40.1-55.1-73.8-48c-0.5,0.1-1,0.2-1.5,0.3c-16.1,3.7-28.6,12.7-37.8,26.4
	c-1.2,1.8-1.2,1.8-3.4,1.3c-10.1-2.1-20.4-3.2-30.7-3.4c-9.3-0.2-18.5-0.2-27.8,0.5c-6.1,0.4-12.1,1.1-18.1,2.2
	c-4.8,0.8-9.5,2-14.2,3.4c-1.3,0.4-2.1,0.3-2.8-1c-0.4-0.6-0.8-1.2-1.2-1.8c-15.9-20.4-36.6-28.9-62.1-24.5
	c-32.4,5.6-56.6,37.5-49.5,73.4c6.7,33.8,39.6,55.8,73.4,49c29.2-5.8,50.2-31.4,50.2-61.1c0-7-1.2-14-3.5-20.7
	c-0.6-1.7-0.6-1.7,1.2-2.2c3.3-0.9,6.6-1.7,10-2.3c11.8-2.1,23.7-2.6,35.6-2.7c8.5-0.1,17,0.3,25.4,1.3c3.7,0.4,7.3,1,10.9,1.8
	c-0.2,0.6-0.4,1.2-0.6,1.8c-3.2,10-3.9,20.5-2,30.8c6.2,33.8,39.1,56.2,72.9,49.9C322.3,224.4,344.6,190.9,337.4,156.5z M111,213
	c-23,20.2-55,14.9-71-2.7c26-22.6,52-45.2,77.9-67.8C133,160.5,134.1,192.8,111,213z M287.5,221.3c-17.5,3.8-33.1-0.5-46.6-12.2
	c-2.4-2.1-2-1.8,0.1-3.6c24.8-21.6,49.6-43.2,74.4-64.7c0.6-0.6,1.3-1.1,2.1-1.4c2.4,3.1,4.4,6.5,6,10
	C337,179,319.4,214.3,287.5,221.3z"/>
<path id="hair" class="st0" d="M389.5,50.8c-1-0.9-2.1-0.4-3.1,0.1c-0.3,0.2-0.7,0.4-1,0.6c-14.2,9.5-30,12.6-46.9,11.4
	c-3-0.1-5.9-0.7-8.6-1.9c-1.5-0.8-3.1-1.5-4.1-3c0.3-0.6,0.9-1,1.5-1.3c4.7-3.1,9.2-6.6,13.3-10.5c6-5.5,11-12,14.8-19.3
	c2.2-4.2,3.3-8.9,3-13.7c-0.4-6.7-5.6-12.2-12.3-13c-6.4-0.7-12.9,0.8-18.4,4.2c-12.3,7.3-19.7,18.3-23.1,32c-2,7.7-1.7,15.4,2,22.7
	c0.2,0.3,0.2,0.7,0.2,1l-0.6,0.3c-10.5,3.1-21.6,3.9-32.5,2.3c-3.3-0.4-6.5-1.9-8.8-4.3c0.3-0.8,1.1-1,1.6-1.4
	c2.1-1.5,4.2-2.9,6.2-4.5c8.2-6.1,15.2-13.8,20.5-22.6c2.5-4.2,4.1-8.9,4.5-13.8c0.6-8.3-4.8-14.9-13.1-15.7
	c-5.9-0.5-11.9,0.8-17,3.9c-12.2,7-19.7,17.8-23.4,31.2c-1.5,5.1-1.9,10.5-1,15.7c0.5,2.7,1.3,5.3,2.6,7.7c0.6,1.1,0.3,1.6-0.9,1.8
	L244,61c-8.8,2.4-18,3.2-27.1,2.4c-2.5-0.1-5-0.6-7.3-1.4c-2.1-0.8-4.1-1.7-5.5-3.6c0.3-0.3,0.6-0.5,0.8-0.7c4-2.6,7.9-5.5,11.5-8.7
	c6.9-6.1,12.9-12.9,17.2-21.1c2.3-4.2,3.5-9,3.4-13.8c-0.2-7-5.5-12.8-12.5-13.6c-6.8-0.6-13.7,1.1-19.4,4.9
	c-10.4,6.6-17.2,16.1-20.9,27.8c-2.9,9-3.2,17.9,1.2,26.5c0.1,0.1,0,0.3,0,0.5l-0.6,0.3c-9.5,2.8-19.4,3.7-29.2,2.8
	c-2.7-0.1-5.4-0.7-7.9-1.8c-1.7-0.7-3.2-1.8-4.4-3.2c2.8-2,5.5-3.9,8.1-5.9c8.4-6.5,15.6-14,20.8-23.3c2.8-4.8,4.2-10.3,3.9-15.8
	c-0.5-6.6-5.6-12-12.2-12.8c-6.1-0.6-12.2,0.7-17.5,3.7c-12.9,7.4-20.5,18.7-24,32.9c-1.9,7.7-1.5,15.2,2.3,22.4
	c0.1,0.2,0,0.5,0,0.7l-0.9,0.3c-10.4,3.1-21.3,3.8-32,2.2c-3.5-0.4-6.7-2-9.2-4.5c2.6-1.9,5.2-3.7,7.7-5.6
	c8.6-6.6,16-14.3,21.3-23.8c2.1-3.7,3.5-7.8,3.9-12c1.1-10.3-6.4-16.5-13.5-16.7c-6.3-0.2-12.5,1.4-17.8,4.7
	c-11.4,7-18.4,17.3-22,30c-2.3,8.3-2.3,16.4,1.7,24.3c0.2,0.3,0.2,0.7,0,1c0,0,0,0,0,0c-4.5,1.4-9.2,2.4-13.9,2.8
	c-6.4,0.7-12.8,0.6-19.1-0.4c-2.6-0.3-5.1-1.4-7.2-3c-0.7-0.5-1.5-1-1.6-1.9c2.6-1.4,5-3,7.3-4.8c8.7-6.6,16.2-14.3,21.6-23.9
	c2.7-4.8,4.4-9.9,4-15.6C54.5,6.5,49.3,0.9,42.5,0.1C36-0.5,29.6,1,24.1,4.3c-5.3,3-9.9,7.1-13.5,12C3.8,25.5-0.6,35.6,0.1,47.2
	c0.7,11.3,6.3,19.6,16.7,24.4c7.5,3.5,15.5,3.6,23.5,2.6c9.3-1.2,18.3-3.8,26.8-7.8c1-0.6,2.3-0.3,3.1,0.6
	c4.8,4.2,10.8,6.8,17.1,7.4c6.6,0.9,13.2,0.2,19.8-1.1c7.2-1.5,14.2-3.8,20.9-6.9c0.9-0.6,2-0.4,2.7,0.4c4.2,3.8,9.4,6.3,14.9,7.2
	c6.5,1.1,13.1,1.1,19.6-0.2c8.1-1.4,16-3.9,23.5-7.4c0.9-0.7,2.2-0.4,2.9,0.5c2.6,2.4,5.7,4.2,9,5.4c7.1,2.8,14.4,2.9,21.7,2
	c9.3-1.1,18.3-3.8,26.8-7.8c1.5-0.7,2.3-0.5,3.5,0.6c4.8,4.2,10.8,6.7,17.2,7.3c6.6,0.6,13.3,0.2,19.8-1.2c7-1.4,13.8-3.7,20.2-6.7
	c1.4-0.7,2.3-0.7,3.5,0.5c2.3,2.1,5,3.8,7.9,4.9c7.1,3.1,14.6,3.3,22.2,2.4c16.4-1.9,31-8.4,44.6-17.6c1-0.6,1.8-1.6,2.2-2.8
	C390.2,52.9,390.4,51.7,389.5,50.8z M13.1,49.1c-1.8-2.5-3.1-5.4-3.5-8.5c-0.3-2-0.4-4.1-0.6-6.1c0.5-9.9,4.2-17.9,12.5-23.4
	c3.8-2.6,8.5-3.4,13-2.4c2.4,0.4,4.4,2.1,5.3,4.4c1.6,3.6,1.8,7.6,0.7,11.3c-2.7,9.4-8.1,17.9-15.5,24.3c-1.8,1.7-4,2.7-6.4,2.9
	C16.4,51.8,14.3,50.9,13.1,49.1z M73.9,49.1c-2.3-3.2-3.6-7-3.8-10.9c-0.1-1.1,0-2.2,0-3.4c0-10,3.8-18.1,12.2-23.8
	c3.8-2.6,8.5-3.5,13-2.4c2.4,0.5,4.4,2.1,5.3,4.4c1.4,3.2,1.7,6.9,0.8,10.3C98.8,34,92.5,43.4,83.7,49.9c-1.4,1-3,1.6-4.7,1.6
	C76.9,51.8,74.9,50.9,73.9,49.1z M134.3,48.6c-0.6-0.9-1.2-1.9-1.6-2.9c-4.8-11.9-1.4-27.5,10.9-35c3.7-2.3,8.2-3.1,12.4-2.1
	c2.5,0.5,4.6,2.2,5.4,4.6c0.9,2.1,1.3,4.4,1.2,6.7c0,2-0.4,4.1-1.1,6c-3.2,9.4-8.4,17.5-16.4,23.6c-0.8,0.7-1.7,1.2-2.7,1.6
	C139,52.3,136.3,51.5,134.3,48.6z M195.3,49.1c-2.6-3.5-3.5-7.5-3.9-11.7c0-1,0-1.9,0-2.9c0.2-9.9,3.9-17.9,12.3-23.5
	c3.3-2.2,7.3-3.2,11.2-2.7c4.7,0.4,7.4,3.2,8.1,8.3c0.5,2.8,0.2,5.8-0.6,8.5c-3.2,9.8-8.4,18.2-16.8,24.5c-1.4,1.2-3.2,1.8-5,2
	C198.5,51.8,196.5,50.8,195.3,49.1z M256,48.9c-2.1-3-3.3-6.4-3.6-10c-0.1-1-0.1-2.1-0.2-3.1c-0.1-10.6,3.7-19.2,12.7-25
	c3.6-2.3,8-3.2,12.2-2.3c2.8,0.4,5.2,2.5,6,5.2c1.3,3.6,1.4,7.5,0.3,11.1c-3.1,10.1-8.6,18.7-17.2,25c-1.3,1-2.8,1.6-4.4,1.7
	C259.5,52,257.2,50.9,256,48.9z M317,49.3c-1.2-1.5-2.1-3.2-2.7-5c-3.1-10.6-1.6-20.4,5.8-28.9c2.9-3.6,7-6,11.5-6.9
	c0.9-0.1,1.9-0.2,2.8-0.2h1.1c5.2,0.1,8.1,2.7,9.1,7.8c0.6,2.9,0.4,5.9-0.4,8.8c-3.1,10-8.5,18.5-17,24.9c-1.5,1.2-3.4,1.9-5.3,1.9
	C320,51.7,318.1,50.9,317,49.3z"/>
</svg>
