<svg id="Layer_1" xmlns="http://www.w3.org/2000/svg" viewBox="0 0 500 500"><style>.st0{fill:#fff}</style><path class="st0" d="M395.6 289.7c-7-33.2-40.1-55.9-75.2-47.7-16.1 3.7-28.6 12.7-37.8 26.4-1.2 1.8-1.2 1.8-3.4 1.3-10.1-2.1-20.4-3.2-30.7-3.4-9.3-.2-18.5-.2-27.8.5-6 .4-12.1 1.1-18.1 2.2-4.8.9-9.6 1.9-14.2 3.4-1.3.4-2.1.3-2.8-1-.3-.6-.8-1.2-1.2-1.8-15.9-20.4-36.6-28.9-62.1-24.5-32.4 5.6-56.6 37.5-49.5 73.4 6.9 34.9 41.7 57.6 77.6 48 27.1-7.3 46-32.1 46-60.1 0-7.1-1.2-14-3.5-20.7-.6-1.7-.6-1.7 1.2-2.2 3.3-1 6.7-1.7 10-2.3 11.8-2.1 23.7-2.6 35.6-2.7 8.5-.1 16.9.3 25.4 1.3 3.6.4 7.1.9 10.9 1.8-.2.8-.4 1.3-.6 1.8-3.2 10.1-3.9 20.4-2 30.8 6.2 33.8 39.1 56.2 72.9 49.9 34.2-6.5 56.5-40 49.3-74.4zm-226.4 56.5c-23 20.2-55 14.9-71-2.7 26-22.6 51.9-45.2 77.9-67.8 15.1 18 16.2 50.3-6.9 70.5zm176.5 8.3c-17.5 3.8-33.1-.5-46.6-12.2-2.4-2.1-2-1.8.1-3.6 24.8-21.6 49.6-43.1 74.4-64.7.6-.5 1.1-1.2 2.1-1.4 2.4 3 4.3 6.4 6 10 13.5 29.6-4.1 64.9-36 71.9zM447.7 184c-1-.9-2.1-.4-3.1.1-.4.2-.7.4-1 .6-14.2 9.5-30 12.6-46.9 11.4-2.9-.2-5.9-.6-8.6-1.9-1.5-.8-3.1-1.5-4.1-3 .4-.8 1-1 1.5-1.3 4.7-3.2 9.2-6.6 13.3-10.5 6-5.7 11.1-11.9 14.8-19.3 2.2-4.3 3.3-8.8 3-13.7-.4-6.7-5.6-12.3-12.3-13-6.6-.7-12.7.8-18.4 4.2-12.3 7.3-19.7 18.3-23.1 32-2 7.7-1.7 15.4 2 22.7.1.3.3.6.2 1l-.6.3c-10.7 3.1-21.5 3.9-32.5 2.3-3.4-.5-6.5-1.8-8.8-4.3.3-.8 1.1-1 1.6-1.4 2.1-1.5 4.2-2.9 6.2-4.5 8.2-6.3 15.2-13.7 20.5-22.6 2.5-4.3 4.1-8.8 4.5-13.8.6-8.3-4.8-14.9-13.1-15.7-6.1-.6-11.8.9-17 3.9-12.2 7-19.7 17.8-23.4 31.2-1.4 5.1-2 10.4-1 15.7.5 2.7 1.3 5.3 2.6 7.7.6 1.1.3 1.6-.9 1.8l-.9.3c-8.9 2.4-17.9 3.1-27.1 2.4-2.5-.2-4.9-.5-7.3-1.4-2.1-.8-4.1-1.7-5.5-3.6.3-.3.6-.5.8-.7 4-2.7 7.9-5.5 11.5-8.7 6.9-6.1 12.9-12.9 17.2-21.1 2.3-4.3 3.5-8.9 3.4-13.8-.2-7-5.5-12.9-12.5-13.6-7-.7-13.5 1.2-19.4 4.9-10.4 6.6-17.2 16.1-20.9 27.8-2.9 9-3.2 17.9 1.2 26.5.1.1 0 .3 0 .5l-.6.3c-9.5 2.9-19.3 3.6-29.2 2.8-2.7-.2-5.4-.6-7.9-1.8-1.6-.8-3.2-1.6-4.4-3.2 2.8-2 5.5-3.9 8.1-5.9 8.4-6.5 15.6-14 20.8-23.3 2.7-4.9 4.3-10.1 3.9-15.8-.5-6.6-5.7-12.1-12.2-12.8-6.2-.7-12.1.7-17.5 3.7-12.9 7.4-20.5 18.7-24 32.9-1.9 7.7-1.5 15.2 2.3 22.4.1.2 0 .5 0 .7l-.9.3c-10.5 3.1-21.2 3.8-32 2.2-3.4-.5-6.6-1.8-9.2-4.5 2.6-1.9 5.2-3.7 7.7-5.6 8.6-6.6 16-14.3 21.3-23.8 2.1-3.7 3.5-7.7 3.9-12 1.1-10.3-6.4-16.5-13.5-16.7-6.5-.2-12.3 1.4-17.8 4.7-11.4 7-18.4 17.3-22 30-2.3 8.3-2.3 16.4 1.7 24.3.2.3.3.6-.1 1-4.4 1.5-9.1 2.3-13.9 2.8-6.4.7-12.8.6-19.1-.4-2.6-.4-5.1-1.3-7.2-3-.7-.5-1.5-1-1.6-1.9 2.6-1.4 5-3 7.3-4.8 8.7-6.6 16.2-14.3 21.6-23.9 2.7-4.8 4.4-9.9 4-15.6-.4-6.8-5.6-12.5-12.4-13.2-6.6-.7-12.7.9-18.4 4.2-5.3 3.1-9.9 7.1-13.5 12-6.8 9.2-11.2 19.3-10.5 30.9.7 11.3 6.3 19.6 16.7 24.4 7.5 3.5 15.5 3.6 23.5 2.6 9.4-1.1 18.3-3.9 26.8-7.8 1.3-.6 2.1-.3 3.1.6 4.9 4.4 10.7 6.6 17.1 7.4 6.6.9 13.2.2 19.8-1.1 7.2-1.5 14.2-3.8 20.9-6.9 1.1-.5 1.8-.5 2.7.4 4.2 3.9 9.3 6.1 14.9 7.2 6.5 1.3 13.1.9 19.6-.2 8.2-1.4 16-3.9 23.5-7.4 1.2-.6 1.9-.5 2.9.5 2.6 2.5 5.7 4.1 9 5.4 7.1 2.8 14.4 2.9 21.7 2 9.4-1.1 18.3-3.8 26.8-7.8 1.5-.7 2.3-.5 3.5.6 4.9 4.3 10.8 6.6 17.2 7.3 6.6.8 13.2.1 19.8-1.2 7-1.4 13.7-3.7 20.2-6.7 1.4-.7 2.3-.7 3.5.5 2.2 2.2 5 3.7 7.9 4.9 7.1 3.1 14.6 3.3 22.2 2.4 16.4-1.9 31-8.4 44.6-17.6 1-.7 1.9-1.6 2.2-2.8 0-1 .2-2.2-.7-3.1zm-376.4-1.7c-1.9-2.5-3-5.4-3.5-8.5-.3-2-.4-4.1-.6-6.1.5-9.9 4.2-17.9 12.5-23.4 4-2.6 8.4-3.4 13-2.4 2.6.5 4.3 2.1 5.3 4.4 1.6 3.7 1.8 7.4.7 11.3-2.8 9.6-8 17.7-15.5 24.3-1.8 1.6-3.9 2.7-6.4 2.9-2.3.1-4.1-.7-5.5-2.5zm60.8 0c-2.4-3.2-3.5-7-3.8-10.9-.1-1.1 0-2.2 0-3.4 0-10 3.8-18.1 12.2-23.8 4-2.7 8.3-3.4 13-2.4 2.5.6 4.3 2.1 5.3 4.4 1.4 3.3 1.7 6.9.8 10.3-2.8 10.9-8.6 19.9-17.7 26.6-1.4 1-3 1.6-4.7 1.6-2.2.2-3.9-.6-5.1-2.4zm60.4-.5c-.6-.9-1.2-1.9-1.6-2.9-4.8-11.9-1.4-27.5 10.9-35 3.9-2.4 8-3 12.4-2.1 2.7.6 4.4 2.1 5.4 4.6.9 2.1 1.2 4.3 1.2 6.7 0 2-.4 4-1.1 6-3.2 9.4-8.4 17.5-16.4 23.6-.8.6-1.7 1.2-2.7 1.6-3.4 1.2-6.1.4-8.1-2.5zm61 .5c-2.6-3.5-3.5-7.5-3.9-11.7-.1-1 0-1.9 0-2.9.2-9.9 3.9-17.9 12.3-23.5 3.4-2.3 7.2-3.1 11.2-2.7 4.7.4 7.4 3.2 8.1 8.3.4 2.9.3 5.8-.6 8.5-3.2 9.8-8.4 18.2-16.8 24.5-1.5 1.1-3.1 1.9-5 2-2.1.1-3.9-.7-5.3-2.5zm60.7-.2c-2.2-3-3.2-6.4-3.6-10-.1-1-.1-2.1-.2-3.1-.1-10.6 3.7-19.2 12.7-25 3.7-2.4 7.8-3.1 12.2-2.3 3 .6 5 2.3 6 5.2 1.3 3.7 1.4 7.4.3 11.1-3.1 10.1-8.6 18.7-17.2 25-1.3 1-2.8 1.6-4.4 1.7-2.5.3-4.4-.5-5.8-2.6zm61 .4c-1.2-1.5-2.2-3.2-2.7-5-3.1-10.6-1.6-20.4 5.8-28.9 3-3.5 6.8-6.1 11.5-6.9 1-.2 2.1-.2 2.8-.2h1.1c5.2.1 8.1 2.7 9.1 7.8.5 3 .5 5.9-.4 8.8-3.1 10-8.5 18.5-17 24.9-1.6 1.2-3.3 1.9-5.3 1.9-2.1-.1-3.6-.8-4.9-2.4z"/></svg>